<svg xmlns="http://www.w3.org/2000/svg" width="1200" height="800" viewBox="0 0 1200 800" role="img" aria-labelledby="title desc">
<title id="title">Rotor and bearing study</title><desc id="desc">An original technical illustration of a rotor, a bearing, and a decorative vibration trace.</desc>
<defs>
 <pattern id="grain" width="11" height="13" patternUnits="userSpaceOnUse"><circle cx="2" cy="2" r=".6" fill="#805526" opacity=".12"/><circle cx="9" cy="8" r=".4" fill="#805526" opacity=".1"/></pattern>
 <pattern id="grid" width="40" height="40" patternUnits="userSpaceOnUse"><path d="M40 0H0V40" fill="none" stroke="#805526" stroke-opacity=".08" stroke-width="1"/></pattern>
 <filter id="shadow" x="-30%" y="-30%" width="180%" height="180%"><feDropShadow dx="0" dy="18" stdDeviation="16" flood-color="#805526" flood-opacity=".12"/></filter>
</defs>
<path fill="#ead8b6" d="M0 0h1200v800H0z"/>
<path fill="url(#grain)" d="M0 0h1200v800H0z"/>
<path fill="url(#grid)" d="M0 0h1200v800H0z"/><circle cx="410" cy="368" r="244" fill="#f0d9a8"/><g transform="translate(410 368)"><path transform="rotate(0)" d="M30-29C81-130 153-200 218-153 166-111 140-69 123-6 85 17 57 15 30-29Z" fill="#b18448" fill-opacity=".68" stroke="#7f592b" stroke-width="2"/><path transform="rotate(30)" d="M30-29C81-130 153-200 218-153 166-111 140-69 123-6 85 17 57 15 30-29Z" fill="#b18448" fill-opacity=".68" stroke="#7f592b" stroke-width="2"/><path transform="rotate(60)" d="M30-29C81-130 153-200 218-153 166-111 140-69 123-6 85 17 57 15 30-29Z" fill="#b18448" fill-opacity=".68" stroke="#7f592b" stroke-width="2"/><path transform="rotate(90)" d="M30-29C81-130 153-200 218-153 166-111 140-69 123-6 85 17 57 15 30-29Z" fill="#b18448" fill-opacity=".68" stroke="#7f592b" stroke-width="2"/><path transform="rotate(120)" d="M30-29C81-130 153-200 218-153 166-111 140-69 123-6 85 17 57 15 30-29Z" fill="#b18448" fill-opacity=".68" stroke="#7f592b" stroke-width="2"/><path transform="rotate(150)" d="M30-29C81-130 153-200 218-153 166-111 140-69 123-6 85 17 57 15 30-29Z" fill="#b18448" fill-opacity=".68" stroke="#7f592b" stroke-width="2"/><path transform="rotate(180)" d="M30-29C81-130 153-200 218-153 166-111 140-69 123-6 85 17 57 15 30-29Z" fill="#b18448" fill-opacity=".68" stroke="#7f592b" stroke-width="2"/><path transform="rotate(210)" d="M30-29C81-130 153-200 218-153 166-111 140-69 123-6 85 17 57 15 30-29Z" fill="#b18448" fill-opacity=".68" stroke="#7f592b" stroke-width="2"/><path transform="rotate(240)" d="M30-29C81-130 153-200 218-153 166-111 140-69 123-6 85 17 57 15 30-29Z" fill="#b18448" fill-opacity=".68" stroke="#7f592b" stroke-width="2"/><path transform="rotate(270)" d="M30-29C81-130 153-200 218-153 166-111 140-69 123-6 85 17 57 15 30-29Z" fill="#b18448" fill-opacity=".68" stroke="#7f592b" stroke-width="2"/><path transform="rotate(300)" d="M30-29C81-130 153-200 218-153 166-111 140-69 123-6 85 17 57 15 30-29Z" fill="#b18448" fill-opacity=".68" stroke="#7f592b" stroke-width="2"/><path transform="rotate(330)" d="M30-29C81-130 153-200 218-153 166-111 140-69 123-6 85 17 57 15 30-29Z" fill="#b18448" fill-opacity=".68" stroke="#7f592b" stroke-width="2"/><circle r="75" fill="#e9cd98" stroke="#805a2e" stroke-width="3"/><circle r="26" fill="#9e7139"/><circle r="242" fill="none" stroke="#a27b46" stroke-width="1" stroke-dasharray="4 8"/></g><path d="M659 368h111" stroke="#8d6838" stroke-width="2" stroke-dasharray="6 7"/><g transform="translate(914 350)"><circle r="135" fill="#ecd8b4" stroke="#866135" stroke-width="4"/><circle r="103" fill="#bb945c"/><circle r="64" fill="#f3e6ca" stroke="#805a2e" stroke-width="3"/><circle cx="84.00" cy="0.00" r="16" fill="#eddfbf" stroke="#866135" stroke-width="2"/><circle cx="67.96" cy="49.37" r="16" fill="#eddfbf" stroke="#866135" stroke-width="2"/><circle cx="25.96" cy="79.89" r="16" fill="#eddfbf" stroke="#866135" stroke-width="2"/><circle cx="-25.96" cy="79.89" r="16" fill="#eddfbf" stroke="#866135" stroke-width="2"/><circle cx="-67.96" cy="49.37" r="16" fill="#eddfbf" stroke="#866135" stroke-width="2"/><circle cx="-84.00" cy="0.00" r="16" fill="#eddfbf" stroke="#866135" stroke-width="2"/><circle cx="-67.96" cy="-49.37" r="16" fill="#eddfbf" stroke="#866135" stroke-width="2"/><circle cx="-25.96" cy="-79.89" r="16" fill="#eddfbf" stroke="#866135" stroke-width="2"/><circle cx="25.96" cy="-79.89" r="16" fill="#eddfbf" stroke="#866135" stroke-width="2"/><circle cx="67.96" cy="-49.37" r="16" fill="#eddfbf" stroke="#866135" stroke-width="2"/></g><path d="M767 557H1057M775 590h17l9-15 9 28 9-39 9 42 9-33 9 17h13l8-7 9 13 9-20 9 20 9-11h128" fill="none" stroke="#997343" stroke-width="2.5"/>
</svg>